<svg xmlns="http://www.w3.org/2000/svg" width="100" height="24" viewBox="0 0 100 24">
  <path fill="#FF0095" fill-rule="evenodd" d="M45.4750425,55.0532915 L45.4750425,70.5463502 L40.710964,70.5463502 L40.710964,67.7420511 C40.2677917,68.6490566 39.6076595,69.3709482 38.7305477,69.9077474 C37.8534358,70.4445466 36.8332316,70.7129422 35.6699043,70.7129422 C33.8972151,70.7129422 32.4892408,70.1206209 31.4459394,68.9359606 C30.4026379,67.7513002 29.880995,66.1224167 29.880995,64.0492611 L29.880995,55.0532915 L34.5896772,55.0532915 L34.5896772,63.466189 C34.5896772,64.5212771 34.8620394,65.3403464 35.406772,65.9234214 C35.9515047,66.5064964 36.6854978,66.7980296 37.6087734,66.7980296 C38.5689801,66.7980296 39.3260547,66.4926139 39.8800201,65.8817734 C40.4339855,65.2709329 40.710964,64.400961 40.710964,63.2718316 L40.710964,55.0532915 L45.4750425,55.0532915 Z M53.5663588,55.0909091 L53.5663588,70.5839678 L48.8299785,70.5839678 L48.8299785,55.0909091 L53.5663588,55.0909091 Z M53.5663588,50 L53.5663588,53.6363636 L48.8299785,53.6363636 L48.8299785,50 L53.5663588,50 Z M61.4845619,50 L61.4845619,70.5463502 L56.7481816,70.5463502 L56.7481816,50 L61.4845619,50 Z M70.6249449,54.8589342 C71.8067377,54.8589342 72.8223257,55.1273298 73.6717393,55.664129 C74.5211529,56.2009282 75.1489709,56.9320748 75.5552121,57.8575907 L75.5552121,55.0532915 L80.2638943,55.0532915 L80.2638943,70.5463502 L75.5552121,70.5463502 L75.5552121,67.7420511 C75.1489709,68.667567 74.5211529,69.3987135 73.6717393,69.9355128 C72.8223257,70.472312 71.8067377,70.7407076 70.6249449,70.7407076 C69.3508246,70.7407076 68.2105962,70.4214094 67.2042258,69.7828034 C66.1978554,69.1441974 65.4038502,68.2233229 64.8221866,67.0201523 C64.2405229,65.8169816 63.9496955,64.4102185 63.9496955,62.7998209 C63.9496955,61.1709129 64.2405229,59.7595223 64.8221866,58.5656068 C65.4038502,57.3716913 66.1978554,56.4554443 67.2042258,55.8168383 C68.2105962,55.1782324 69.3508246,54.8589342 70.6249449,54.8589342 Z M72.1483421,59.0237349 C71.1327389,59.0237349 70.3156522,59.3569156 69.6970576,60.0232871 C69.0784629,60.6896585 68.7691702,61.6151605 68.7691702,62.7998209 C68.7691702,63.9844812 69.0784629,64.9099832 69.6970576,65.5763547 C70.3156522,66.2427261 71.1327389,66.5759069 72.1483421,66.5759069 C73.1454798,66.5759069 73.9625665,66.2334711 74.5996266,65.5485893 C75.2366868,64.8637076 75.5552121,63.9474606 75.5552121,62.7998209 C75.5552121,61.6336708 75.2366868,60.7127963 74.5996266,60.0371697 C73.9625665,59.3615431 73.1454798,59.0237349 72.1483421,59.0237349 Z M93.1712231,54.8589342 C94.4453435,54.8589342 95.5855718,55.1782324 96.5919422,55.8168383 C97.5983127,56.4554443 98.3923178,57.3716913 98.9739815,58.5656068 C99.5556451,59.7595223 99.8464726,61.1709129 99.8464726,62.7998209 C99.8464726,64.4102185 99.5556451,65.8169816 98.9739815,67.0201523 C98.3923178,68.2233229 97.5983127,69.1441974 96.5919422,69.7828034 C95.5855718,70.4214094 94.4453435,70.7407076 93.1712231,70.7407076 C91.9894303,70.7407076 90.9738424,70.472312 90.1244288,69.9355128 C89.2750152,69.3987135 88.6564298,68.667567 88.268654,67.7420511 L88.268654,70.5463502 L83.5322737,70.5463502 L83.5322737,50 L88.268654,50 L88.268654,57.8575907 C88.6564298,56.9320748 89.2750152,56.2009282 90.1244288,55.664129 C90.9738424,55.1273298 91.9894303,54.8589342 93.1712231,54.8589342 Z M91.6478259,59.0237349 C92.6634291,59.0237349 93.4805158,59.3569156 94.0991105,60.0232871 C94.7177052,60.6896585 95.0269979,61.6151605 95.0269979,62.7998209 C95.0269979,63.9844812 94.7177052,64.9099832 94.0991105,65.5763547 C93.4805158,66.2427261 92.6634291,66.5759069 91.6478259,66.5759069 C90.6506883,66.5759069 89.8336016,66.2334711 89.1965414,65.5485893 C88.5594812,64.8637076 88.2409559,63.9474606 88.2409559,62.7998209 C88.2409559,61.6336708 88.5594812,60.7127963 89.1965414,60.0371697 C89.8336016,59.3615431 90.6506883,59.0237349 91.6478259,59.0237349 Z M18.4855295,62.3260969 C20.1058661,64.3563319 20.5859528,66.2804535 19.8030421,67.6042958 C19.0053596,68.9535504 17.2622756,69.236863 15.9408942,69.236863 C15.4762828,69.236863 14.9747417,69.2001182 14.4503393,69.1286891 L14.1932379,69.0933179 L14.0951103,69.3278664 C13.0958969,71.7138733 11.6348858,73.0827022 10.085595,73.0827022 C8.53771113,73.0827022 7.07634834,71.7138733 6.07678322,69.3278664 L5.97865561,69.0933179 L5.72155424,69.1286891 C5.19680014,69.2001182 4.69490731,69.236863 4.22994422,69.236863 C2.90821104,69.236863 1.16583046,68.9535504 0.367796241,67.6042958 C-0.414762657,66.28011 0.0649723257,64.3563319 1.68530888,62.3267837 L1.84533778,62.1262328 L1.68530888,61.9260252 C0.0646206138,59.8961337 -0.415114369,57.9723555 0.367796241,56.6485132 C1.16477532,55.3006322 2.90750761,55.0176631 4.2292408,55.0176631 C4.69631415,55.0176631 5.19644842,55.0533776 5.71487171,55.1241199 L5.97197308,55.1594911 L6.06974898,54.9245992 C7.063335,52.5389357 8.52715978,51.1704502 10.085595,51.1704502 C11.6426235,51.1704502 13.1057448,52.5389357 14.1000343,54.9249426 L14.1981619,55.1598345 L14.455615,55.1244633 C14.97439,55.053721 15.4745242,55.0180065 15.942301,55.0180065 C17.2636825,55.0180065 19.0064148,55.3006322 19.8026904,56.6485132 C20.5859528,57.9716687 20.1055143,59.8954469 18.4855295,61.9260252 L18.3258523,62.1258894 L18.4855295,62.3260969 Z M5.29387261,68.3299194 L5.68673476,68.2866498 L5.57664895,67.9157679 C5.32095442,67.0531241 5.12434749,66.1200814 4.99245554,65.1420521 L4.97451824,65.0081225 L4.86443242,64.9257043 C4.05549514,64.3223344 3.32393446,63.6918352 2.68979797,63.0510337 L2.415111,62.7735591 L2.18122261,63.0840009 C0.938976308,64.7309913 0.55068641,66.2248212 1.11694251,67.1822459 C1.57768505,67.9617847 2.68381887,68.3910462 4.23099936,68.3910462 C4.56688419,68.3910462 4.92457515,68.3704416 5.29387261,68.3299194 Z M13.5988449,65.5912313 C13.4651943,65.3985787 13.516896,65.1351839 13.7145581,65.0050318 C14.9761485,64.1715778 16.0713793,63.2783705 16.9700031,62.3501356 L17.1866576,62.1262328 L16.9700031,61.9026734 C16.0685656,60.9710044 14.9684109,60.0750498 13.7004896,59.2391919 C13.5031792,59.1086965 13.4511259,58.8453016 13.5847764,58.6523057 C13.6498431,58.5578682 13.7490258,58.4953677 13.864739,58.4744197 L14.1964033,58.4156968 L14.1327435,58.0925487 C14.0180854,57.511157 13.8770489,56.947966 13.7131512,56.4180856 L13.6224096,56.1241274 L13.3164202,56.1955565 C12.7716186,56.3226179 12.2064176,56.4864241 11.6366444,56.6814805 L11.3176417,56.7913714 L11.43441,57.1014699 C11.475912,57.2110174 11.4702847,57.3284633 11.4189347,57.4318295 C11.3457787,57.5784652 11.1966528,57.6694686 11.0299414,57.6694686 C10.9641713,57.6694686 10.9005114,57.654702 10.8403687,57.6261991 C10.6321553,57.5276407 10.4267556,57.4349202 10.2227627,57.3446036 L10.0852433,57.2838202 L9.94807571,57.3442602 C9.74232427,57.4349202 9.53551769,57.5290143 9.32449057,57.6289464 C9.26469956,57.6574493 9.20103971,57.6718725 9.1356213,57.6718725 C8.96890988,57.6718725 8.81978405,57.5808691 8.74697969,57.4349202 C8.69457462,57.3308672 8.69000237,57.212391 8.73185608,57.1018133 L8.8510864,56.7906846 L8.52997347,56.6804502 C7.95773827,56.4843636 7.39394415,56.3215877 6.85371473,56.1955565 L6.54772541,56.1241274 L6.45698374,56.4184291 C6.29414115,56.9455621 6.15275298,57.5087532 6.0377432,58.0925487 L5.97373164,58.4153534 L6.30504422,58.4744197 C6.42075742,58.4953677 6.52064359,58.5588984 6.586062,58.6533359 C6.65077698,58.7463998 6.67398996,58.859038 6.65218383,58.9696157 C6.63037769,59.0805369 6.56566271,59.1756612 6.46964537,59.2388485 C5.20207581,60.0753933 4.1019211,60.9713478 3.20013188,61.9026734 L2.98347737,62.1262328 L3.20013188,62.3501356 C4.1019211,63.2814612 5.20242753,64.1781025 6.47175564,65.0149907 C6.66941771,65.1451428 6.72182278,65.4085376 6.58817227,65.6011901 C6.52451242,65.6935672 6.42392283,65.7553808 6.30539593,65.7766722 L5.97302822,65.8350518 L6.03739149,66.1588866 C6.15310469,66.743369 6.295548,67.3069035 6.45909402,67.8350667 L6.55018739,68.1286816 L6.85617671,68.0572525 C7.39992325,67.9295043 7.96371737,67.7667283 8.53102861,67.5723587 L8.85214154,67.4621244 L8.73291122,67.1509957 C8.69105751,67.0407613 8.69633318,66.922972 8.74838654,66.818919 C8.8211909,66.6722833 8.97031673,66.5812799 9.13702815,66.5812799 C9.20244656,66.5812799 9.2661064,66.5957031 9.32660084,66.6248928 C9.53622112,66.7241381 9.74267598,66.8182322 9.94807571,66.9082054 L10.0852433,66.9686454 L10.222411,66.9082054 C10.427459,66.8182322 10.6339138,66.7244815 10.8435341,66.6248928 C10.9036768,66.5967333 10.966985,66.5823101 11.0327551,66.5823101 C11.1994665,66.5823101 11.3485924,66.6733135 11.4217484,66.8196058 C11.4734501,66.9233154 11.4787257,67.0411048 11.436872,67.1509957 L11.3183451,67.461781 L11.6387546,67.5720153 C12.2064176,67.7663849 12.7702117,67.9295043 13.3150134,68.0572525 L13.6210027,68.1286816 L13.7120961,67.8347233 C13.8774007,67.3010655 14.019844,66.7330667 14.1355572,66.1465239 L14.1981619,65.828527 L13.8728284,65.7653397 C13.758522,65.7437049 13.6610979,65.6815479 13.5988449,65.5912313 Z M6.99580632,54.9678687 L6.83859112,55.3202065 L7.2205502,55.4139572 C8.10264356,55.6296182 9.02342522,55.9318183 9.9568685,56.3116288 L10.0852433,56.3634836 L10.2132665,56.3116288 C11.1481166,55.9314749 12.0688982,55.6292748 12.9495848,55.4143007 L13.3311921,55.3208934 L13.1743286,54.9682122 C12.3256479,53.0636649 11.2286586,52.0148933 10.085595,52.0148933 C8.94112464,52.0148933 7.84378362,53.0636649 6.99580632,54.9678687 Z M19.0538959,67.1822459 C19.6198003,66.2244778 19.2318621,64.7309913 17.9892641,63.0836575 L17.7546722,62.7732157 L17.4806887,63.0506903 C16.8479591,63.6901181 16.1163984,64.3216476 15.3060542,64.9260477 L15.1959684,65.0084659 L15.1780311,65.1423955 C15.0457875,66.1224852 14.8495322,67.0555279 14.5941894,67.9161113 L14.4844553,68.2873366 L14.8773175,68.3302628 C15.2462632,68.370785 15.6032508,68.3910462 15.9391356,68.3910462 C17.4863161,68.3910462 18.5931533,67.9617847 19.0538959,67.1822459 Z M13.1708115,69.28391 L13.3283784,68.9315722 L12.9460676,68.8374781 C12.066788,68.622504 11.1474132,68.3206473 10.2132665,67.9411802 L10.0852433,67.888982 L9.9568685,67.9411802 C9.02518378,68.3199605 8.1068641,68.6218171 7.22582588,68.8371347 L6.84281166,68.9308854 L7.001082,69.2835666 C7.85433498,71.1888007 8.94956573,72.2379157 10.085595,72.2379157 C11.2226795,72.2379157 12.318262,71.1888007 13.1708115,69.28391 Z M1.11694251,57.0705631 C0.55068641,58.0276444 0.938976308,59.5218177 2.18122261,61.1691514 L2.415111,61.4792499 L2.68979797,61.2021187 C3.32428617,60.5613172 4.05655027,59.9297878 4.86513585,59.3264179 L4.97522166,59.2439997 L4.99315897,59.1100701 C5.12610605,58.1227687 5.32095442,57.189726 5.57278012,56.3360109 L5.68216251,55.965129 L5.28930036,55.9222028 C4.92211317,55.8820239 4.56618076,55.8614194 4.23135107,55.8614194 C2.68381887,55.8614194 1.57768505,56.2906808 1.11694251,57.0705631 Z M14.8808346,55.9222028 L14.4879725,55.965129 L14.5977066,56.3360109 C14.8495322,57.1904129 15.0447323,58.123799 15.1773277,59.1100701 L15.195265,59.2439997 L15.3057025,59.3264179 C16.1146398,59.9297878 16.8462005,60.5609738 17.4806887,61.2017753 L17.755024,61.4792499 L17.9892641,61.1684646 C19.2315104,59.5207875 19.6198003,58.027301 19.0538959,57.0705631 C18.5931533,56.2906808 17.4866678,55.8614194 15.9394873,55.8614194 C15.6046576,55.8614194 15.2483735,55.8820239 14.8808346,55.9222028 Z M10.0852433,59.3771051 C11.5163589,59.3771051 12.6805252,60.513446 12.6805252,61.9107779 C12.6805252,63.3081098 11.5163589,64.4447941 10.0852433,64.4447941 C8.65412776,64.4447941 7.48996149,63.3081098 7.48996149,61.9107779 C7.48996149,60.513446 8.65412776,59.3771051 10.0852433,59.3771051 Z M10.0852433,63.5495264 C11.0105972,63.5495264 11.7636124,62.8142874 11.7636124,61.9107779 C11.7636124,61.0072684 11.0105972,60.2720293 10.0852433,60.2720293 C9.15988942,60.2720293 8.40687432,61.0072684 8.40687432,61.9107779 C8.40687432,62.8142874 9.15988942,63.5495264 10.0852433,63.5495264 Z" transform="translate(0 -50)"/>
</svg>
