<svg width="18" height="14" viewBox="0 0 18 14" fill="none" xmlns="http://www.w3.org/2000/svg">
<path d="M17.1648 0.00784565C16.4177 0.534866 15.5904 0.937952 14.7149 1.20158C14.245 0.661287 13.6205 0.278341 12.9259 0.104535C12.2313 -0.0692709 11.5 -0.0255511 10.8311 0.229782C10.1621 0.485114 9.58768 0.93974 9.1855 1.53217C8.78333 2.1246 8.57281 2.82626 8.58241 3.54224V4.32246C7.21128 4.35801 5.85264 4.05392 4.62749 3.43726C3.40233 2.8206 2.34871 1.91052 1.56044 0.788065C1.56044 0.788065 -1.56044 7.81003 5.46153 10.9309C3.85469 12.0216 1.94053 12.5685 0 12.4913C7.02197 16.3924 15.6044 12.4913 15.6044 3.51883C15.6037 3.3015 15.5828 3.08471 15.542 2.87125C16.3383 2.08595 16.9002 1.09447 17.1648 0.00784565Z" fill="black"/>
</svg>
